# Blender v2.83.3 OBJ File: ''
# www.blender.org
mtllib cube.mtl
o Cube
v 0.500000 0.500000 -0.500000
v 0.500000 -0.500000 -0.500000
v 0.500000 0.500000 0.500000
v 0.500000 -0.500000 0.500000
v -0.500000 0.500000 -0.500000
v -0.500000 -0.500000 -0.500000
v -0.500000 0.500000 0.500000
v -0.500000 -0.500000 0.500000
v 0.494178 0.500000 -0.494178
v -0.494178 0.500000 -0.494178
v -0.494178 0.500000 0.494178
v 0.494178 0.500000 0.494178
v 0.494178 -0.494178 0.500000
v 0.494178 0.494178 0.500000
v -0.494178 0.494178 0.500000
v -0.494178 -0.494178 0.500000
v -0.500000 -0.494178 0.494178
v -0.500000 0.494178 0.494178
v -0.500000 0.494178 -0.494178
v -0.500000 -0.494178 -0.494178
v -0.494178 -0.500000 -0.494178
v 0.494178 -0.500000 -0.494178
v 0.494178 -0.500000 0.494178
v -0.494178 -0.500000 0.494178
v 0.500000 -0.494178 -0.494178
v 0.500000 0.494178 -0.494178
v 0.500000 0.494178 0.494178
v 0.500000 -0.494178 0.494178
v -0.494178 -0.494178 -0.500000
v -0.494178 0.494178 -0.500000
v 0.494178 0.494178 -0.500000
v 0.494178 -0.494178 -0.500000
v 0.494178 0.494178 -0.494178
v 0.494178 0.494178 0.494178
v -0.494178 0.494178 0.494178
v -0.494178 0.494178 -0.494178
v -0.494178 -0.494178 -0.494178
v 0.494178 -0.494178 -0.494178
v 0.494178 -0.494178 0.494178
v -0.494178 -0.494178 0.494178
vt 0.333333 0.666667
vt 0.333333 1.000000
vt 0.325000 0.991667
vt 0.325000 0.675000
vt 0.000000 1.000000
vt 0.008333 0.991667
vt 0.000000 0.666667
vt 0.008333 0.675000
vt 0.000000 0.666667
vt -0.000000 0.333333
vt 0.008333 0.341667
vt 0.008333 0.658333
vt 0.333333 0.333333
vt 0.325000 0.341667
vt 0.333333 0.666667
vt 0.325000 0.658333
vt 0.333333 0.333333
vt 0.000000 0.333333
vt 0.008333 0.325000
vt 0.325000 0.325000
vt -0.000000 0.000000
vt 0.008333 0.008333
vt 0.333333 0.000000
vt 0.325000 0.008333
vt 0.333333 0.333333
vt 0.000000 0.333333
vt 0.008333 0.325000
vt 0.325000 0.325000
vt 0.000000 0.000000
vt 0.008333 0.008333
vt 0.333333 0.000000
vt 0.325000 0.008333
vt 0.333333 0.333333
vt 0.000000 0.333333
vt 0.008333 0.325000
vt 0.325000 0.325000
vt 0.000000 0.000000
vt 0.008333 0.008333
vt 0.333333 0.000000
vt 0.325000 0.008333
vt 0.333333 0.666667
vt 0.000000 0.666667
vt 0.008333 0.658333
vt 0.325000 0.658333
vt 0.008333 0.341667
vt 0.325000 0.341667
vt 0.833334 0.333333
vt 0.841667 0.333333
vt 0.841667 0.650000
vt 0.833334 0.650000
vt 0.733334 0.333333
vt 0.741667 0.333333
vt 0.741667 0.650000
vt 0.733334 0.650000
vt 0.841667 0.650000
vt 0.841667 0.333333
vt 0.850001 0.333333
vt 0.850001 0.650000
vt 0.750000 0.650000
vt 0.741667 0.650000
vt 0.741667 0.333333
vt 0.750000 0.333333
vt 0.833334 0.650000
vt 0.825001 0.650000
vt 0.825001 0.333333
vt 0.833334 0.333333
vt 0.683334 0.650000
vt 0.683333 0.333333
vt 0.691667 0.333333
vt 0.691667 0.650000
vt 0.783334 0.333333
vt 0.783334 0.650000
vt 0.775001 0.650000
vt 0.775000 0.333333
vt 0.808334 0.650000
vt 0.800001 0.650000
vt 0.800001 0.333333
vt 0.808334 0.333333
vt 0.700000 0.650000
vt 0.700000 0.333333
vt 0.708334 0.333333
vt 0.708334 0.650000
vt 0.791667 0.333333
vt 0.791667 0.650000
vt 0.783334 0.650000
vt 0.783334 0.333333
vt 0.816667 0.650000
vt 0.808334 0.650000
vt 0.808334 0.333333
vt 0.816667 0.333333
vt 0.683334 0.333333
vt 0.683333 0.650000
vt 0.675000 0.650000
vt 0.675000 0.333333
vt 0.750000 0.650000
vt 0.750000 0.333333
vt 0.758334 0.333333
vt 0.758334 0.650000
vt 0.725000 0.650000
vt 0.716667 0.650000
vt 0.716667 0.333333
vt 0.725000 0.333333
vt 0.716667 0.650000
vt 0.708334 0.650000
vt 0.708334 0.333333
vt 0.716667 0.333333
vt 0.733334 0.650000
vt 0.725000 0.650000
vt 0.733334 0.333333
vt 0.825001 0.333333
vt 0.825001 0.650000
vt 0.816667 0.650000
vt 0.816667 0.333333
vt 0.775000 0.650000
vt 0.766667 0.650000
vt 0.766667 0.333333
vt 0.775000 0.333333
vt 0.791667 0.333333
vt 0.800001 0.333333
vt 0.800001 0.650000
vt 0.791667 0.650000
vt 0.850001 0.650000
vt 0.850001 0.333333
vt 0.858334 0.333333
vt 0.858334 0.650000
vt 0.691667 0.333333
vt 0.700000 0.333333
vt 0.700000 0.650000
vt 0.691667 0.650000
vt 0.675000 0.650000
vt 0.666667 0.650000
vt 0.666667 0.333333
vt 0.675000 0.333333
vt 0.758334 0.650000
vt 0.758334 0.333333
vt 0.766667 0.333333
vt 0.766667 0.650000
vt 0.866667 0.650000
vt 0.858334 0.650000
vt 0.858334 0.333333
vt 0.866667 0.333333
vn 0.0000 1.0000 -0.0000
vn 0.0000 0.0000 1.0000
vn -1.0000 0.0000 0.0000
vn 0.0000 -1.0000 -0.0000
vn 1.0000 0.0000 0.0000
vn -0.0000 0.0000 -1.0000
usemtl Material
s off
f 1/1/1 5/2/1 10/3/1 9/4/1
f 5/2/1 7/5/1 11/6/1 10/3/1
f 7/5/1 3/7/1 12/8/1 11/6/1
f 3/7/1 1/1/1 9/4/1 12/8/1
f 4/9/2 3/10/2 14/11/2 13/12/2
f 3/10/2 7/13/2 15/14/2 14/11/2
f 7/13/2 8/15/2 16/16/2 15/14/2
f 8/15/2 4/9/2 13/12/2 16/16/2
f 8/17/3 7/18/3 18/19/3 17/20/3
f 7/18/3 5/21/3 19/22/3 18/19/3
f 5/21/3 6/23/3 20/24/3 19/22/3
f 6/23/3 8/17/3 17/20/3 20/24/3
f 6/25/4 2/26/4 22/27/4 21/28/4
f 2/26/4 4/29/4 23/30/4 22/27/4
f 4/29/4 8/31/4 24/32/4 23/30/4
f 8/31/4 6/25/4 21/28/4 24/32/4
f 2/33/5 1/34/5 26/35/5 25/36/5
f 1/34/5 3/37/5 27/38/5 26/35/5
f 3/37/5 4/39/5 28/40/5 27/38/5
f 4/39/5 2/33/5 25/36/5 28/40/5
f 6/41/6 5/42/6 30/43/6 29/44/6
f 5/42/6 1/34/6 31/45/6 30/43/6
f 1/34/6 2/33/6 32/46/6 31/45/6
f 2/33/6 6/41/6 29/44/6 32/46/6
f 17/47/1 40/48/1 37/49/1 20/50/1
f 13/51/1 39/52/1 40/53/1 16/54/1
f 38/55/1 39/56/1 28/57/1 25/58/1
f 29/59/1 37/60/1 38/61/1 32/62/1
f 28/63/6 39/64/6 34/65/6 27/66/6
f 13/67/3 14/68/3 34/69/3 39/70/3
f 23/71/6 24/72/6 40/73/6 39/74/6
f 23/75/3 39/76/3 38/77/3 22/78/3
f 21/79/2 22/80/2 38/81/2 37/82/2
f 24/83/5 21/84/5 37/85/5 40/86/5
f 16/87/5 40/88/5 35/89/5 15/90/5
f 17/91/6 18/92/6 35/93/6 40/94/6
f 25/95/2 26/96/2 33/97/2 38/98/2
f 32/99/3 38/100/3 33/101/3 31/102/3
f 10/103/2 36/104/2 33/105/2 9/106/2
f 36/107/4 30/108/4 31/102/4 33/109/4
f 29/110/5 30/111/5 36/112/5 37/113/5
f 20/114/2 37/115/2 36/116/2 19/117/2
f 11/118/5 35/119/5 36/120/5 10/121/5
f 18/122/4 19/123/4 36/124/4 35/125/4
f 12/126/6 34/127/6 35/128/6 11/129/6
f 34/130/4 14/131/4 15/132/4 35/133/4
f 12/134/3 9/135/3 33/136/3 34/137/3
f 27/138/4 34/139/4 33/140/4 26/141/4
