# Blender v2.83.3 OBJ File: ''
# www.blender.org
mtllib cube2.mtl
o Cube
v 0.500000 0.500000 -0.500000
v 0.500000 -0.500000 -0.500000
v 0.450000 0.450000 0.500000
v 0.450000 -0.450000 0.500000
v -0.500000 0.500000 -0.500000
v -0.500000 -0.500000 -0.500000
v -0.450000 0.450000 0.500000
v -0.450000 -0.450000 0.500000
v -0.500000 -0.500000 0.500000
v -0.500000 0.500000 0.500000
v 0.500000 0.500000 0.500000
v 0.500000 -0.500000 0.500000
v 0.000000 0.000000 0.050000
v -0.450000 0.450000 -0.400000
v 0.450000 0.450000 -0.400000
v 0.450000 -0.450000 -0.400000
v -0.450000 0.000000 0.500000
v 0.000000 -0.450000 0.500000
v -0.450000 0.000000 -0.400000
v 0.450000 0.000000 -0.400000
v 0.000000 0.450000 -0.400000
v 0.000000 -0.450000 -0.400000
v 0.450000 -0.450000 0.050000
v -0.450000 0.450000 0.050000
v -0.450000 -0.450000 0.050000
v 0.000000 -0.450000 0.050000
v -0.450000 0.000000 0.050000
v 0.000000 0.000000 -0.400000
vt 0.000000 0.000000
vt 1.000000 0.000000
vt 1.000000 1.000000
vt 0.000000 1.000000
vt 0.000000 0.000000
vt 1.000000 0.000000
vt 1.000000 1.000000
vt 0.000000 1.000000
vt 1.000000 1.000000
vt 1.000000 0.000000
vt 0.000000 0.000000
vt 1.000000 0.000000
vt 1.000000 1.000000
vt 0.000000 1.000000
vt 0.000000 0.000000
vt 1.000000 1.000000
vt 0.000000 1.000000
vt 1.000000 0.000000
vt 1.000000 0.500000
vt 1.000000 1.000000
vt 0.900000 0.950000
vt 0.900000 0.050000
vt 0.900000 0.950000
vt 0.900000 0.050000
vt 0.900000 0.050000
vt 0.049902 0.900000
vt 0.500000 0.900000
vt 0.950000 0.900000
vt 1.000000 1.000000
vt 0.000000 0.000000
vt 0.500000 0.000000
vt 0.500000 0.500000
vt 0.000000 0.500000
vt 0.000000 0.000200
vt 0.999800 0.000200
vt 0.999800 1.000000
vt 0.499900 1.000000
vt -0.000000 1.000000
vt 0.000000 0.500100
vt 0.500000 0.000000
vt 0.500000 0.500000
vt 0.000000 0.500000
vt 0.000000 0.000000
vt 0.500000 0.000000
vt 0.500000 0.500000
vt 0.000000 0.500000
vt 0.000000 0.000000
vt 0.500000 0.000000
vt 0.500000 0.500000
vt 0.000000 0.500000
vt 0.000000 0.000000
vt 0.500000 0.500000
vt 0.000000 0.500000
vt 0.000000 0.000000
vt 0.500000 0.000000
vt 0.500000 0.500000
vt 0.000000 0.500000
vt 0.000000 0.000000
vt 0.500000 0.000000
vt 0.500000 0.000000
vt 0.000000 0.000000
vt 0.000000 0.500000
vt 0.500000 0.500000
vt 0.000000 0.000000
vt 0.500000 0.000000
vt 0.500000 0.500000
vt 0.000000 0.500000
vt 0.000000 0.000000
vt 0.500000 0.000000
vt 0.500000 0.500000
vt 0.000000 0.500000
vt 0.500000 1.000000
vt 0.000000 1.000000
vt 0.000000 0.500000
vt 0.500000 1.000000
vt 0.500000 0.500000
vt 0.000000 1.000000
vt 0.000000 1.000000
vt 0.500000 1.000000
vt 0.999900 0.000100
vt 0.999900 0.999900
vt 0.500000 0.999900
vt 0.000100 0.999900
vt 0.000100 0.500000
vt 0.000100 0.000100
vn 0.0000 1.0000 0.0000
vn -1.0000 0.0000 0.0000
vn 0.0000 -1.0000 0.0000
vn 1.0000 0.0000 0.0000
vn 0.0000 0.0000 -1.0000
vn 0.0000 0.0000 1.0000
usemtl Material
s off
f 1/1/1 5/2/1 10/3/1 11/4/1
f 9/5/2 10/6/2 5/7/2 6/8/2
f 6/8/3 2/9/3 12/10/3 9/5/3
f 2/11/4 1/12/4 11/13/4 12/14/4
f 6/15/5 5/2/5 1/16/5 2/17/5
f 8/18/6 17/19/6 7/20/6 10/21/6 9/22/6
f 3/23/6 4/24/6 12/10/6 11/13/6
f 7/25/6 3/23/6 11/13/6 10/6/6
f 4/26/6 18/27/6 8/28/6 9/29/6 12/14/6
f 28/30/6 21/31/6 14/32/6 19/33/6
f 4/34/2 3/35/2 15/36/2 20/37/2 16/38/2 23/39/2
f 26/40/1 23/41/1 16/42/1 22/43/1
f 8/44/1 18/45/1 26/46/1 25/47/1
f 18/48/1 4/49/1 23/50/1 26/51/1
f 24/52/4 27/53/4 19/54/4 14/55/4
f 7/56/4 17/57/4 27/58/4 24/59/4
f 17/60/4 8/61/4 25/62/4 27/63/4
f 16/64/6 20/65/6 28/66/6 22/67/6
f 20/68/6 15/69/6 21/70/6 28/71/6
f 28/66/1 19/72/1 27/73/1 13/74/1
f 28/75/4 13/76/4 26/46/4 22/77/4
f 25/78/6 26/46/6 13/76/6 27/79/6
f 3/80/3 7/81/3 24/82/3 14/83/3 21/84/3 15/85/3
