# Blender v2.83.3 OBJ File: 'lightCubeOuter.blend'
# www.blender.org
mtllib lightCubeOuter.mtl
o Cube
v 0.500000 0.500000 -0.500000
v 0.500000 -0.500000 -0.500000
v 0.500000 0.500000 0.500000
v 0.500000 -0.500000 0.500000
v -0.500000 0.500000 -0.500000
v -0.500000 -0.500000 -0.500000
v -0.500000 0.500000 0.500000
v -0.500000 -0.500000 0.500000
v 0.375000 0.500000 -0.375000
v -0.375000 0.500000 -0.375000
v -0.375000 0.500000 0.375000
v 0.375000 0.500000 0.375000
v 0.375000 -0.375000 0.500000
v 0.375000 0.375000 0.500000
v -0.375000 0.375000 0.500000
v -0.375000 -0.375000 0.500000
v -0.500000 -0.375000 0.375000
v -0.500000 0.375000 0.375000
v -0.500000 0.375000 -0.375000
v -0.500000 -0.375000 -0.375000
v -0.375000 -0.500000 -0.375000
v 0.375000 -0.500000 -0.375000
v 0.375000 -0.500000 0.375000
v -0.375000 -0.500000 0.375000
v 0.500000 -0.375000 -0.375000
v 0.500000 0.375000 -0.375000
v 0.500000 0.375000 0.375000
v 0.500000 -0.375000 0.375000
v -0.375000 -0.375000 -0.500000
v -0.375000 0.375000 -0.500000
v 0.375000 0.375000 -0.500000
v 0.375000 -0.375000 -0.500000
v 0.375000 -0.375000 0.375000
v 0.375000 0.375000 0.375000
v -0.375000 -0.375000 -0.375000
v 0.375000 0.375000 -0.375000
v -0.375000 0.375000 0.375000
v 0.375000 -0.375000 -0.375000
v -0.375000 -0.375000 0.375000
v -0.375000 0.375000 -0.375000
vt 0.875000 1.000000
vt 0.125000 1.000000
vt 0.125000 0.875000
vt 0.875000 0.875000
vt 0.000000 0.875000
vt 0.000000 0.125000
vt 0.125000 0.125000
vt 0.000000 0.875000
vt 0.000000 0.125000
vt 0.125000 0.875000
vt 0.875000 0.000000
vt 0.125000 0.000000
vt 0.125000 0.125000
vt 0.875000 0.125000
vt 1.000000 0.875000
vt 1.000000 0.125000
vt 0.875000 0.125000
vt 0.875000 0.875000
vt 0.125000 1.000000
vt 0.875000 1.000000
vt 0.875000 0.875000
vt 0.125000 0.875000
vt 1.000000 1.000000
vt 0.000000 1.000000
vt 0.125000 0.875000
vt 0.875000 0.875000
vt 0.000000 0.000000
vt 0.125000 0.125000
vt 1.000000 0.000000
vt 0.875000 0.125000
vt 1.000000 0.000000
vt 1.000000 1.000000
vt 0.875000 0.875000
vt 0.875000 0.125000
vt 0.000000 1.000000
vt 0.125000 0.875000
vt 0.000000 0.000000
vt 0.125000 0.125000
vt 0.125000 0.875000
vt 0.125000 0.125000
vt 1.000000 1.000000
vt 0.875000 0.875000
vt 1.000000 0.000000
vt 0.875000 0.125000
vt 0.000000 1.000000
vt 1.000000 1.000000
vt 0.875000 0.875000
vt 0.125000 0.875000
vt 0.875000 0.125000
vt 0.125000 0.125000
vt 1.000000 0.000000
vt 0.875000 0.875000
vt 0.875000 0.125000
vt 0.000000 1.000000
vt 0.125000 0.875000
vt 0.000000 0.000000
vt 0.125000 0.125000
vt 0.000000 0.000000
vt 0.125000 0.875000
vt 0.125000 0.125000
vt 0.875000 0.875000
vt 0.875000 0.125000
vt 0.125000 0.000000
vt 0.875000 0.000000
vt 0.875000 0.000000
vt 0.125000 0.000000
vt 0.125000 0.125000
vt 0.875000 0.125000
vt 0.000000 0.125000
vt 0.000000 0.875000
vt 0.125000 0.875000
vt 1.000000 0.875000
vt 0.875000 0.875000
vt 1.000000 0.875000
vt 1.000000 0.125000
vt 1.000000 0.125000
vt 1.000000 0.125000
vt 1.000000 0.875000
vt 0.875000 0.125000
vt 1.000000 0.875000
vt 1.000000 0.125000
vt 0.875000 1.000000
vt 0.125000 1.000000
vt 0.000000 0.125000
vt 0.000000 0.875000
vt 0.000000 0.875000
vt 0.000000 0.125000
vt 0.125000 0.125000
vt 0.125000 0.000000
vt 0.875000 0.000000
vt 0.125000 0.000000
vt 0.875000 0.000000
vt 0.875000 1.000000
vt 0.125000 1.000000
vt 0.875000 1.000000
vt 0.125000 1.000000
vn 1.0000 0.0000 0.0000
vn 0.0000 1.0000 0.0000
vn -1.0000 0.0000 0.0000
vn 0.0000 0.0000 -1.0000
vn 0.0000 -1.0000 0.0000
vn 0.0000 0.0000 1.0000
usemtl Material
s off
f 10/1/1 11/2/1 37/3/1 40/4/1
f 15/5/1 16/6/1 39/7/1 37/3/1
f 20/8/2 17/9/2 39/7/2 35/10/2
f 22/11/3 23/12/3 33/13/3 38/14/3
f 27/15/4 28/16/4 33/17/4 34/18/4
f 30/19/5 31/20/5 36/21/5 40/22/5
f 1/23/2 5/24/2 10/25/2 9/26/2
f 5/24/2 7/27/2 11/28/2 10/25/2
f 7/27/2 3/29/2 12/30/2 11/28/2
f 3/29/2 1/23/2 9/26/2 12/30/2
f 4/31/6 3/32/6 14/33/6 13/34/6
f 3/32/6 7/35/6 15/36/6 14/33/6
f 7/35/6 8/37/6 16/38/6 15/36/6
f 8/37/6 4/31/6 13/34/6 16/38/6
f 8/37/3 7/35/3 18/39/3 17/40/3
f 7/35/3 5/41/3 19/42/3 18/39/3
f 5/41/3 6/43/3 20/44/3 19/42/3
f 6/43/3 8/37/3 17/40/3 20/44/3
f 6/45/5 2/46/5 22/47/5 21/48/5
f 2/46/5 4/31/5 23/49/5 22/47/5
f 4/31/5 8/37/5 24/50/5 23/49/5
f 8/37/5 6/45/5 21/48/5 24/50/5
f 2/51/1 1/23/1 26/52/1 25/53/1
f 1/23/1 3/54/1 27/55/1 26/52/1
f 3/54/1 4/56/1 28/57/1 27/55/1
f 4/56/1 2/51/1 25/53/1 28/57/1
f 6/58/4 5/24/4 30/59/4 29/60/4
f 5/24/4 1/23/4 31/61/4 30/59/4
f 1/23/4 2/51/4 32/62/4 31/61/4
f 2/51/4 6/58/4 29/60/4 32/62/4
f 16/63/2 13/64/2 33/17/2 39/7/2
f 14/65/5 15/66/5 37/67/5 34/68/5
f 13/69/3 14/70/3 34/71/3 33/13/3
f 28/16/2 25/72/2 38/73/2 33/17/2
f 26/74/5 27/75/5 34/68/5 36/21/5
f 25/76/6 26/74/6 36/21/6 38/14/6
f 29/77/1 30/78/1 40/4/1 35/79/1
f 31/80/3 32/81/3 38/14/3 36/21/3
f 32/82/2 29/83/2 35/10/2 38/73/2
f 18/84/5 19/85/5 40/22/5 37/67/5
f 17/9/4 18/86/4 37/3/4 39/7/4
f 19/85/6 20/87/6 35/88/6 40/22/6
f 21/89/6 22/11/6 38/14/6 35/88/6
f 23/90/4 24/91/4 39/7/4 33/17/4
f 24/91/1 21/92/1 35/79/1 39/7/1
f 9/93/6 10/94/6 40/22/6 36/21/6
f 11/2/4 12/95/4 34/18/4 37/3/4
f 12/96/3 9/93/3 36/21/3 34/71/3
